# xmcd
#
# Track frame offsets: 
#        150
#        1355
#        20482
#        38612
#        54132
#        55020
#        69967
#        77817
#        96352
#        115397
#        146662
#        167460
#        186212
#        205582
#        206285
#        233210
#        251822
#        282323
#
# Disc length: 4791 seconds
#
# Revision: 4
# Processed by: cddbd v1.5.2PL0 Copyright (c) Steve Scherf et al.
# Submitted via: ExactAudioCopy v0.99pb4
#
DISCID=ed12b512
DTITLE=Radney Foster - Are You Ready For The Big Show?
DYEAR=2001
DGENRE=Country
TTITLE0=Are You Ready For The Big Show?
TTITLE1=Tonight
TTITLE2=God Knows When
TTITLE3=Just Call Me Lonesome
TTITLE4=Something Stupid
TTITLE5=School Of Hard Knocks
TTITLE6=Intro To Went For A Ride
TTITLE7=Went For A Ride
TTITLE8=I'm Used To It
TTITLE9=Folding Money
TTITLE10=Leaning On What Love Can Do
TTITLE11=How You Play The Hand
TTITLE12=Nobody Wins
TTITLE13=We Know Better
TTITLE14=I'm In
TTITLE15=Texas In 1880 (with Pat Green) [Bonus]
TTITLE16=Tonight [Bonus]
TTITLE17=Data
EXTD=YEAR: 2001 ID3G:   2
EXTT0=
EXTT1=
EXTT2=
EXTT3=
EXTT4=
EXTT5=
EXTT6=
EXTT7=
EXTT8=
EXTT9=
EXTT10=
EXTT11=
EXTT12=
EXTT13=
EXTT14=
EXTT15=
EXTT16=
EXTT17=
PLAYORDER=
